<svg width="48" height="48" viewBox="0 0 48 48" fill="none" xmlns="http://www.w3.org/2000/svg">
<path fill-rule="evenodd" clip-rule="evenodd" d="M23.9998 47.3333C11.1128 47.3333 0.666504 36.887 0.666504 24C0.666504 11.113 11.1128 0.666626 23.9998 0.666626C36.8868 0.666626 47.3332 11.113 47.3332 24C47.3332 36.887 36.8868 47.3333 23.9998 47.3333ZM23.9993 42.6665C34.3086 42.6665 42.666 34.3091 42.666 23.9998C42.666 13.6905 34.3086 5.33316 23.9993 5.33316C13.69 5.33316 5.33263 13.6905 5.33263 23.9998C5.33263 34.3091 13.69 42.6665 23.9993 42.6665ZM12.8501 23.4328L22.7504 33.3332L36.3846 20.1336L33.083 16.8342L22.7504 26.7345L16.1494 20.1335L12.8501 23.4328Z" fill="#3AAC68"/>
</svg>
