<svg width="32" height="32" viewBox="0 0 32 32" fill="none" xmlns="http://www.w3.org/2000/svg">
<path fill-rule="evenodd" clip-rule="evenodd" d="M16 1.33325L26.956 3.76792C27.5653 3.90392 28 4.44392 28 5.06925V18.3853C28 21.0599 26.6627 23.5586 24.4373 25.0413L16 30.6666L7.56267 25.0413C5.336 23.5573 4 21.0599 4 18.3866V5.06925C4 4.44392 4.43467 3.90392 5.044 3.76792L16 1.33325ZM16 4.06528L6.66667 6.13861V18.3853C6.66667 20.1679 7.55733 21.8333 9.04133 22.8226L16 27.4626L22.9587 22.8226C24.4427 21.8333 25.3333 20.1693 25.3333 18.3866V6.13861L16 4.06661V4.06528ZM23.8226 12.8479L21.9359 10.9626V10.9612L15.3359 17.5612L11.5653 13.7906L9.67992 15.6759L15.3373 21.3332L23.8226 12.8479Z" fill="white"/>
</svg>
