<svg width="32" height="32" viewBox="0 0 32 32" fill="none" xmlns="http://www.w3.org/2000/svg">
<path d="M17.6802 22.584V25.3333H23.5814V28H9.4186V25.3333H15.3198V22.584C13.038 22.2589 10.9397 21.0044 9.41861 19.0557C7.89751 17.107 7.05818 14.5981 7.05814 12V4H25.9419V12C25.9418 14.5981 25.1025 17.107 23.5814 19.0557C22.0603 21.0044 19.962 22.2589 17.6802 22.584ZM9.4186 6.66667V12C9.4186 14.1217 10.1647 16.1566 11.4927 17.6569C12.8207 19.1571 14.6219 20 16.5 20C18.3781 20 20.1793 19.1571 21.5073 17.6569C22.8353 16.1566 23.5814 14.1217 23.5814 12V6.66667H9.4186Z" fill="white"/>
<path fill-rule="evenodd" clip-rule="evenodd" d="M2 7H5.70824L5.7093 9H4.05697C4.16592 10.5316 4.52039 11.3877 4.84586 11.8371C5.2204 12.3544 5.54222 12.3355 5.56653 12.332L5.85207 14.312C4.97716 14.4353 3.95014 14.0363 3.20065 13.0012C2.46705 11.9882 2 10.3881 2 8V7Z" fill="white"/>
<path fill-rule="evenodd" clip-rule="evenodd" d="M31 7H27.2918L27.2907 9H28.943C28.8341 10.5316 28.4796 11.3877 28.1541 11.8371C27.7796 12.3544 27.4578 12.3355 27.4335 12.332L27.1479 14.312C28.0228 14.4353 29.0499 14.0363 29.7994 13.0012C30.5329 11.9882 31 10.3881 31 8V7Z" fill="white"/>
</svg>
