<svg width="32" height="32" viewBox="0 0 32 32" fill="none" xmlns="http://www.w3.org/2000/svg">
<path d="M4.45383 22.6612C3.89022 21.6866 3.45211 20.6446 3.1499 19.5601C3.80761 19.2256 4.35997 18.7156 4.74586 18.0867C5.13175 17.4577 5.33614 16.7343 5.33642 15.9964C5.33669 15.2585 5.13285 14.5349 4.74742 13.9057C4.362 13.2765 3.81003 12.7661 3.15257 12.4311C3.75525 10.2519 4.90278 8.26193 6.48706 6.64874C7.10582 7.05102 7.82382 7.27426 8.56159 7.29375C9.29937 7.31324 10.0281 7.12822 10.6673 6.75918C11.3064 6.39013 11.831 5.85145 12.1829 5.20274C12.5349 4.55403 12.7005 3.82059 12.6614 3.08359C14.8508 2.51778 17.1481 2.5187 19.3371 3.08626C19.2983 3.82324 19.4643 4.55657 19.8165 5.20509C20.1687 5.85362 20.6935 6.39205 21.3327 6.76081C21.972 7.12958 22.7008 7.31429 23.4385 7.29451C24.1763 7.27473 24.8942 7.05123 25.5127 6.64874C26.2847 7.43537 26.97 8.32999 27.546 9.3286C28.1233 10.3272 28.5553 11.3685 28.8499 12.4298C28.1922 12.7643 27.6398 13.2742 27.2539 13.9032C26.8681 14.5321 26.6637 15.2555 26.6634 15.9934C26.6631 16.7313 26.867 17.4549 27.2524 18.0841C27.6378 18.7134 28.1898 19.2237 28.8472 19.5587C28.2446 21.738 27.097 23.7279 25.5127 25.3411C24.894 24.9388 24.176 24.7156 23.4382 24.6961C22.7004 24.6766 21.9717 24.8616 21.3325 25.2307C20.6934 25.5997 20.1688 26.1384 19.8169 26.7871C19.4649 27.4358 19.2993 28.1693 19.3384 28.9062C17.149 29.4721 14.8517 29.4711 12.6627 28.9036C12.7015 28.1666 12.5355 27.4333 12.1833 26.7847C11.8311 26.1362 11.3063 25.5978 10.6671 25.229C10.0278 24.8603 9.29899 24.6756 8.56126 24.6953C7.82352 24.7151 7.10564 24.9386 6.48706 25.3411C5.69909 24.5371 5.01593 23.6366 4.45383 22.6612ZM12.0001 22.9226C13.4209 23.742 14.4891 25.0571 15 26.6157C15.6653 26.6784 16.3332 26.6797 16.9985 26.617C17.5097 25.0583 18.5784 23.7431 19.9997 22.9239C21.4199 22.1022 23.0936 21.8339 24.6994 22.1706C25.0861 21.6266 25.4194 21.0467 25.6967 20.44C24.6027 19.218 23.9983 17.6351 23.9995 15.9949C23.9995 14.315 24.6261 12.7458 25.6967 11.5498C25.4175 10.9434 25.0827 10.3641 24.6968 9.81924C23.0919 10.1556 21.4193 9.88787 19.9997 9.06728C18.5789 8.24782 17.5107 6.9327 16.9999 5.37414C16.3346 5.31148 15.6666 5.31014 15.0013 5.37281C14.4901 6.93159 13.4214 8.24674 12.0001 9.06595C10.5799 9.88766 8.90624 10.1559 7.30035 9.81924C6.91446 10.3636 6.58057 10.943 6.30307 11.5498C7.39711 12.7718 8.0015 14.3547 8.00032 15.9949C8.00032 17.6748 7.37368 19.2441 6.30307 20.44C6.58235 21.0465 6.91709 21.6258 7.30302 22.1706C8.90789 21.8342 10.5805 22.102 12.0001 22.9226ZM15.9999 19.9947C14.9391 19.9947 13.9217 19.5733 13.1716 18.8232C12.4215 18.0731 12.0001 17.0557 12.0001 15.9949C12.0001 14.9341 12.4215 13.9167 13.1716 13.1666C13.9217 12.4165 14.9391 11.9951 15.9999 11.9951C17.0607 11.9951 18.0781 12.4165 18.8282 13.1666C19.5783 13.9167 19.9997 14.9341 19.9997 15.9949C19.9997 17.0557 19.5783 18.0731 18.8282 18.8232C18.0781 19.5733 17.0607 19.9947 15.9999 19.9947ZM15.9999 17.3282C16.3535 17.3282 16.6926 17.1877 16.9427 16.9377C17.1927 16.6876 17.3332 16.3485 17.3332 15.9949C17.3332 15.6413 17.1927 15.3022 16.9427 15.0522C16.6926 14.8021 16.3535 14.6617 15.9999 14.6617C15.6463 14.6617 15.3072 14.8021 15.0571 15.0522C14.8071 15.3022 14.6666 15.6413 14.6666 15.9949C14.6666 16.3485 14.8071 16.6876 15.0571 16.9377C15.3072 17.1877 15.6463 17.3282 15.9999 17.3282Z" fill="white"/>
</svg>
