<svg width="104" height="112" viewBox="0 0 104 112" fill="none" xmlns="http://www.w3.org/2000/svg">
<path d="M57.7061 65.8509H62.3083V56.7424L66.3353 65.8509H71.1841L75.3343 56.7424V65.8509H79.7311V46.0089H75.0056L68.8008 60.2062L62.5138 46.0089H57.7061V65.8509Z" fill="#D88D4C"/>
<path d="M43.4762 55.9559C43.4762 61.5668 39.1767 66.1153 33.8729 66.1153C28.5691 66.1153 24.2695 61.5668 24.2695 55.9559C24.2695 50.345 28.5691 45.7965 33.8729 45.7965C39.1767 45.7965 43.4762 50.345 43.4762 55.9559ZM28.7409 55.9559C28.7409 58.9544 31.0386 61.3851 33.8729 61.3851C36.7072 61.3851 39.0049 58.9544 39.0049 55.9559C39.0049 52.9575 36.7072 50.5268 33.8729 50.5268C31.0386 50.5268 28.7409 52.9575 28.7409 55.9559Z" fill="#D88D4C"/>
<path d="M49.0898 42.2559H50.789V68.6661H49.0898V42.2559Z" fill="#D88D4C"/>
<path d="M72.6781 9.60668L74.4769 10.8972C74.4769 11.2694 74.1916 11.8898 75.2924 12.6564C76.2741 13.3399 77.0945 13.5273 77.4479 13.1418C77.7049 12.7584 77.0107 11.8146 75.6493 10.7717C73.4969 9.12275 74.2361 7.37346 74.6215 6.888L74.6219 6.8875C75.0077 6.40153 76.1848 4.91902 79.1166 6.56659C81.7466 8.04453 81.3248 10.2767 80.6598 11.0715C79.9746 10.7288 79.5606 10.5004 78.8469 10.0435C79.1166 9.38333 78.6701 8.92405 77.9476 8.43004C77.4479 8.08845 76.6231 7.68337 76.3378 8.06803C76.0524 8.4527 77.1318 9.14757 77.7049 9.71507C79.2531 10.9858 80.6598 12.5103 79.1181 14.484C77.2682 16.4562 74.4298 15.2022 72.9514 13.5273C71.8323 12.2594 72.0703 10.3388 72.6781 9.60668Z" fill="white"/>
<path d="M97.7742 26.0997C95.8402 27.3992 91.9508 30.0054 91.8654 30.0338L93.0934 31.8496L99.0021 27.9511L100.39 30.0338L102.117 28.7165L98.2911 22.8771L96.4164 24.0892L97.7742 26.0997Z" fill="white"/>
<path fill-rule="evenodd" clip-rule="evenodd" d="M52.5992 110.923L52.0097 101.772L56.922 101.483C58.0769 101.483 59.6816 102.12 59.6816 103.953C59.6816 104.62 59.4708 105.244 59.26 105.481C59.6597 105.758 60.3667 106.52 60.3667 107.629C60.3667 108.822 59.5509 110.474 56.922 110.659C56.7707 110.67 56.6214 110.68 56.4742 110.691C54.6616 110.819 53.1838 110.923 52.5992 110.923ZM54.2842 104.347C54.2861 104.52 54.288 104.691 54.288 104.819H55.5952L56.9029 104.782C57.7276 104.782 57.8511 103.575 56.8272 103.575C56.3793 103.575 55.7638 103.587 55.2339 103.597C54.8332 103.605 54.4815 103.612 54.288 103.612C54.2762 103.632 54.2802 103.994 54.2842 104.347ZM55.172 106.999C54.8759 107.006 54.6447 107.011 54.4781 107.011C54.4782 107.061 54.4782 107.667 54.4782 108.136V108.576H55.7811L57.3183 108.542C58.47 108.542 58.4944 106.969 57.3671 106.969C56.43 106.969 55.6985 106.986 55.172 106.999Z" fill="white"/>
<path d="M25.4422 103.938L31.3896 106.881L32.3276 104.898L28.3413 102.894L29.0234 101.529L32.6023 103.282L33.5769 101.31L29.9827 99.5461L30.4517 98.48L34.4299 100.454L35.4229 98.4262C33.4759 97.481 29.5179 95.6337 29.5179 95.5484C29.5179 95.4631 26.7994 101.103 25.4422 103.938Z" fill="white"/>
<path d="M10.7335 75.7082L2.97412 80.6336L4.08261 82.4459L7.72781 80.2284L5.14846 84.1303L6.44879 86.1133L11.0746 85.5163L7.49332 87.819L8.77234 89.6527L16.4678 84.6208L15.338 82.851L8.04756 83.6826L12.0552 77.5419L10.7335 75.7082Z" fill="white"/>
<path d="M11.2951 23.0851C13.5595 24.3349 14.3842 27.1808 13.137 29.4417C11.8898 31.7026 9.04304 32.5223 6.7786 31.2725C4.51415 30.0228 3.68951 27.1769 4.9367 24.916C6.18389 22.6551 9.03063 21.8354 11.2951 23.0851ZM7.83004 29.3665C9.04015 30.0343 10.5614 29.5963 11.2279 28.3881C11.8944 27.1799 11.4537 25.659 10.2436 24.9912C9.03352 24.3233 7.51223 24.7614 6.84574 25.9696C6.17925 27.1778 6.61993 28.6986 7.83004 29.3665Z" fill="white"/>
<path d="M3.46168 54.0523C3.46168 54.8704 2.79869 55.5335 1.98084 55.5335C1.163 55.5335 0.5 54.8704 0.5 54.0523C0.5 53.2343 1.163 52.5712 1.98084 52.5712C2.79869 52.5712 3.46168 53.2343 3.46168 54.0523Z" fill="white"/>
<path d="M103.5 54.0523C103.5 54.8704 102.837 55.5335 102.019 55.5335C101.201 55.5335 100.538 54.8704 100.538 54.0523C100.538 53.2343 101.201 52.5712 102.019 52.5712C102.837 52.5712 103.5 53.2343 103.5 54.0523Z" fill="white"/>
<path d="M82.2717 93.3945L80.9825 91.6691L75.5533 95.4649L80.8735 103.075L86.3027 99.2063L85.1043 97.4809L81.4727 100.042L80.5467 98.7523L83.7606 96.4457L82.5622 94.7566L79.312 96.9724L78.6401 96.0461L82.2717 93.3945Z" fill="white"/>
<path d="M103.352 76.9922L101.328 75.9844L99.3694 79.9726L93.0383 76.8809L92.079 78.8852L100.414 82.9577L103.352 76.9922Z" fill="white"/>
<path d="M34.968 12.2836L33.9888 10.2455L29.9949 12.1913L26.8938 5.86368L24.9066 6.85703L28.9876 15.1892L34.968 12.2836Z" fill="white"/>
<path d="M54.2619 9.30664V0H52.0137L52.0137 9.30664H54.2619Z" fill="white"/>
</svg>
