<svg width="64" height="64" viewBox="0 0 64 64" fill="none" xmlns="http://www.w3.org/2000/svg">
<path d="M34.4152 37.7222H36.9499V32.7057L39.1677 37.7222H41.8382L44.1239 32.7057V37.7222H46.5455V26.7942H43.9429L40.5256 34.6134L37.063 26.7942H34.4152V37.7222Z" fill="#D88D4C"/>
<path d="M26.5781 32.2725C26.5781 35.3627 24.2101 37.8678 21.289 37.8678C18.368 37.8678 16 35.3627 16 32.2725C16 29.1823 18.368 26.6772 21.289 26.6772C24.2101 26.6772 26.5781 29.1823 26.5781 32.2725ZM18.4626 32.2725C18.4626 33.9239 19.728 35.2626 21.289 35.2626C22.85 35.2626 24.1155 33.9239 24.1155 32.2725C24.1155 30.6212 22.85 29.2824 21.289 29.2824C19.728 29.2824 18.4626 30.6212 18.4626 32.2725Z" fill="#D88D4C"/>
<path d="M29.6698 24.7272H30.6056V39.2727H29.6698V24.7272Z" fill="#D88D4C"/>
<path d="M42.661 6.74543L43.6517 7.45616C43.6517 7.66118 43.4946 8.00288 44.1009 8.42505C44.6415 8.8015 45.0934 8.90473 45.288 8.69241C45.4295 8.48126 45.0472 7.96142 44.2974 7.38704C43.112 6.4789 43.5191 5.51548 43.7314 5.24811L43.7316 5.24784C43.9441 4.98019 44.5923 4.1637 46.207 5.0711C47.6555 5.88507 47.4232 7.11445 47.0569 7.55218C46.6796 7.36345 46.4516 7.23763 46.0585 6.98599C46.207 6.62242 45.9611 6.36947 45.5632 6.09739C45.288 5.90926 44.8337 5.68616 44.6766 5.89802C44.5194 6.10987 45.1139 6.49257 45.4295 6.80512C46.2822 7.50499 47.0569 8.34458 46.2079 9.4316C45.189 10.5178 43.6258 9.82717 42.8116 8.90473C42.1952 8.20644 42.3263 7.14863 42.661 6.74543Z" fill="#282C3F"/>
<path d="M56.4827 15.829C55.4176 16.5447 53.2755 17.98 53.2285 17.9957L53.9048 18.9957L57.159 16.8486L57.9236 17.9957L58.8743 17.2702L56.7674 14.0541L55.7349 14.7217L56.4827 15.829Z" fill="#282C3F"/>
<path fill-rule="evenodd" clip-rule="evenodd" d="M31.6026 62.5455L31.2779 57.5054L33.9833 57.3465C34.6194 57.3465 35.5032 57.6971 35.5032 58.7065C35.5032 59.0741 35.3871 59.4178 35.271 59.5484C35.4911 59.7008 35.8805 60.1206 35.8805 60.7314C35.8805 61.3881 35.4313 62.298 33.9833 62.4C33.9 62.4059 33.8178 62.4117 33.7367 62.4174C32.7384 62.488 31.9245 62.5455 31.6026 62.5455ZM32.5306 58.9237C32.5316 59.0191 32.5327 59.1133 32.5327 59.1836H33.2526L33.9728 59.1633C34.427 59.1633 34.4951 58.4986 33.9312 58.4986C33.6845 58.4986 33.3455 58.5052 33.0536 58.5109C32.833 58.5152 32.6392 58.5189 32.5327 58.5189C32.5262 58.5298 32.5284 58.7292 32.5306 58.9237ZM33.0195 60.3842C32.8565 60.3881 32.7291 60.3911 32.6374 60.3911C32.6374 60.4185 32.6374 60.7521 32.6374 61.0107V61.2526H33.355L34.2016 61.2343C34.8359 61.2343 34.8493 60.3676 34.2285 60.3676C33.7124 60.3676 33.3095 60.3773 33.0195 60.3842Z" fill="#282C3F"/>
<path d="M16.6459 58.6986L19.9214 60.3192L20.438 59.2271L18.2425 58.1232L18.6182 57.3717L20.5893 58.337L21.126 57.2511L19.1465 56.2796L19.4048 55.6924L21.5958 56.7794L22.1427 55.6628C21.0704 55.1422 18.8905 54.1248 18.8905 54.0778C18.8905 54.0309 17.3933 57.1368 16.6459 58.6986Z" fill="#282C3F"/>
<path d="M8.54505 43.1509L4.27156 45.8635L4.88206 46.8617L6.88965 45.6404L5.46907 47.7893L6.18523 48.8815L8.73288 48.5526L6.76051 49.8209L7.46493 50.8308L11.7032 48.0594L11.0809 47.0848L7.06576 47.5427L9.27294 44.1608L8.54505 43.1509Z" fill="#282C3F"/>
<path d="M8.85432 14.1687C10.1015 14.857 10.5556 16.4244 9.86875 17.6696C9.18186 18.9147 7.61402 19.3662 6.36687 18.6779C5.11973 17.9896 4.66556 16.4222 5.35245 15.177C6.03934 13.9318 7.60718 13.4804 8.85432 14.1687ZM6.94596 17.6281C7.61242 17.996 8.45027 17.7547 8.81734 17.0893C9.18441 16.4239 8.94171 15.5863 8.27524 15.2184C7.60877 14.8506 6.77092 15.0919 6.40385 15.7573C6.03678 16.4227 6.27949 17.2603 6.94596 17.6281Z" fill="#282C3F"/>
<path d="M4.54008 31.2239C4.54008 31.6744 4.17494 32.0396 3.72451 32.0396C3.27408 32.0396 2.90894 31.6744 2.90894 31.2239C2.90894 30.7733 3.27408 30.4081 3.72451 30.4081C4.17494 30.4081 4.54008 30.7733 4.54008 31.2239Z" fill="#282C3F"/>
<path d="M59.6362 31.2239C59.6362 31.6744 59.2711 32.0396 58.8206 32.0396C58.3702 32.0396 58.0051 31.6744 58.0051 31.2239C58.0051 30.7733 58.3702 30.4081 58.8206 30.4081C59.2711 30.4081 59.6362 30.7733 59.6362 31.2239Z" fill="#282C3F"/>
<path d="M47.9447 52.8916L47.2347 51.9413L44.2445 54.0319L47.1747 58.223L50.1648 56.0924L49.5048 55.1422L47.5047 56.5526L46.9947 55.8424L48.7647 54.572L48.1047 53.6418L46.3146 54.8621L45.9446 54.352L47.9447 52.8916Z" fill="#282C3F"/>
<path d="M59.5547 43.858L58.4402 43.303L57.3613 45.4995L53.8744 43.7967L53.3461 44.9006L57.9365 47.1435L59.5547 43.858Z" fill="#282C3F"/>
<path d="M21.8922 8.21972L21.3529 7.09725L19.1532 8.16893L17.4453 4.68397L16.3509 5.23105L18.5985 9.81998L21.8922 8.21972Z" fill="#282C3F"/>
<path d="M32.5183 6.58018V1.45454H31.2801L31.2801 6.58018H32.5183Z" fill="#282C3F"/>
</svg>
