<svg width="20" height="20" viewBox="0 0 20 20" fill="none" xmlns="http://www.w3.org/2000/svg">
<path d="M10 19.7736C10 19.7736 3.40372 14.4491 2.64411 10.6301C2.35473 9.17528 2.50326 7.66729 3.07092 6.29684C3.63858 4.9264 4.59987 3.75507 5.83324 2.93096C7.0666 2.10686 8.51665 1.66699 10 1.66699C11.4834 1.66699 12.9334 2.10686 14.1668 2.93096C15.4001 3.75507 16.3614 4.9264 16.9291 6.29684C17.4968 7.66729 17.6453 9.17528 17.3559 10.6301C16.5963 14.4491 10 19.7736 10 19.7736ZM10 12.5003C10.8841 12.5003 11.7319 12.1491 12.357 11.5239C12.9821 10.8988 13.3333 10.051 13.3333 9.16693C13.3333 8.28287 12.9821 7.43503 12.357 6.8099C11.7319 6.18478 10.8841 5.83359 10 5.83359C9.11595 5.83359 8.2681 6.18478 7.64298 6.8099C7.01786 7.43503 6.66667 8.28287 6.66667 9.16693C6.66667 10.051 7.01786 10.8988 7.64298 11.5239C8.2681 12.1491 9.11595 12.5003 10 12.5003Z" fill="#D88D4C"/>
</svg>
